<?xml version="1.0" encoding="UTF-8" standalone="no"?>
<!DOCTYPE svg PUBLIC "-//W3C//DTD SVG 1.1//EN" "http://www.w3.org/Graphics/SVG/1.1/DTD/svg11.dtd">
<svg width="100%" height="100%" viewBox="0 0 4096 4096" version="1.1" xmlns="http://www.w3.org/2000/svg" xmlns:xlink="http://www.w3.org/1999/xlink" xml:space="preserve" xmlns:serif="http://www.serif.com/" style="fill-rule:evenodd;clip-rule:evenodd;stroke-linecap:round;stroke-linejoin:round;stroke-miterlimit:1;">
    <g transform="matrix(1,0,0,1,0,1973)">
        <g transform="matrix(4.291974,0,0,4.291974,-309.612911,-2309.541549)">
            <path d="M124.726,496.373C151.775,548.485 181.652,631.117 198.981,642.46C207.78,648.218 231.584,660.949 256.483,658.396C323.254,651.549 489.769,580.407 584.54,586.313C590.516,598.11 593.374,605.759 609,620.055C444.332,613.732 418.449,626.829 295.228,668.828C256.666,681.971 225.048,687.196 194.691,673.303C170.81,662.374 146.547,598.843 121.763,531.388C105.858,488.1 107.464,486.373 95.741,477.175C89.46,472.246 102.244,469.293 112.316,479.682C119.657,487.254 119.193,487.362 124.726,496.373Z" style="fill:rgb(63,152,240);"/>
            <path d="M136.215,490.41C155.144,526.879 175.458,578.301 191.886,609.761C197.529,620.567 201.904,628.902 206.07,631.629C213.593,636.553 233.873,647.702 255.163,645.519C288.061,642.146 345.491,622.781 406.411,605.139C469.775,586.789 536.778,570.367 585.345,573.394C589.926,573.68 594.013,576.369 596.087,580.464C601.397,590.945 603.853,597.802 617.738,610.505C621.745,614.171 623.037,619.949 620.974,624.973C618.911,629.997 613.931,633.198 608.504,632.99C446.284,626.76 420.793,639.705 299.404,681.08C257.188,695.469 222.538,700.283 189.304,685.073C180.462,681.027 171.086,671.613 162.154,657.502C144.912,630.263 127.327,584.067 109.613,535.852C103.279,518.613 99.737,507.994 97.016,500.872C94.134,493.325 92.698,491.24 87.751,487.358C82.394,483.156 81.243,478.469 81.138,475.187C80.997,470.8 82.616,466.82 86.26,463.72C88.616,461.716 92.665,459.708 98.192,459.739C104.193,459.773 113.551,462.36 121.609,470.672C129.95,479.275 129.47,479.362 135.757,489.6C135.919,489.864 136.072,490.134 136.215,490.41ZM124.726,496.373C119.193,487.362 119.657,487.254 112.316,479.682C102.244,469.293 89.46,472.246 95.741,477.175C107.464,486.373 105.858,488.1 121.763,531.388C146.547,598.843 170.81,662.374 194.691,673.303C225.048,687.196 256.666,681.971 295.228,668.828C418.449,626.829 444.332,613.732 609,620.055C593.374,605.759 590.516,598.11 584.54,586.313C489.769,580.407 323.254,651.549 256.483,658.396C231.584,660.949 207.78,648.218 198.981,642.46C181.652,631.117 151.775,548.485 124.726,496.373Z" style="fill:rgb(25,43,111);"/>
        </g>
        <g transform="matrix(4.291974,0,0,4.291974,-309.612911,-2309.541549)">
            <path d="M124.726,496.373C132.766,511.862 162.06,577.103 162.06,577.103C157.228,587.544 155.331,598.63 154.669,615.082C145.621,596.002 124.79,541.511 121.763,531.388C105.858,488.1 107.464,486.373 95.741,477.175C89.46,472.246 102.244,469.293 112.316,479.682C119.657,487.254 119.193,487.362 124.726,496.373Z" style="fill:rgb(95,204,240);"/>
        </g>
        <g transform="matrix(4.291974,0,0,4.291974,-409.846281,-2422.708258)">
            <path d="M622.134,599.381C622.134,599.381 514.265,643.483 468.853,657.285C430.018,669.089 371.2,675.318 349.662,682.197C321.059,691.334 284.616,713.085 266.231,713.068C223.436,713.028 216.991,688.288 211.035,677.113C187.115,632.234 231.064,548.825 240.513,534.583C252.507,516.505 272.591,489.084 279.297,489.908C287.48,490.913 258.522,535.923 249.906,554.514C239.362,577.269 225.988,619.776 228.908,641.283C231.341,659.198 241.044,687.131 270.527,683.097C285.874,680.997 318.337,663.688 339.219,656.632C387.834,640.206 424.052,638.777 462.712,626.952C505.78,613.778 562.521,591.862 597.625,577.593C605.748,574.291 622.134,599.381 622.134,599.381Z" style="fill:rgb(63,152,240);"/>
            <path d="M627.032,611.362C627.032,611.362 518.363,655.766 472.617,669.67C433.841,681.456 375.106,687.658 353.601,694.528C336.755,699.909 317.157,709.791 300.262,716.797C286.867,722.351 274.803,726.02 266.219,726.012C245.538,725.993 231.986,720.811 222.585,714.202C208.772,704.49 203.841,691.136 199.612,683.201C188.708,662.743 189.388,635.297 195.768,608.643C204.62,571.663 223.751,536.435 229.727,527.428C240.033,511.892 256.124,490.109 265.747,482.4C271.693,477.637 277.314,476.623 280.875,477.06C288.345,477.977 296.677,484.269 292.684,498.684C289.074,511.714 268.76,544.614 261.651,559.957C251.961,580.867 239.051,619.778 241.735,639.542C243.422,651.971 248.317,673.071 268.773,670.272C283.613,668.242 314.883,651.193 335.076,644.37C383.834,627.895 420.152,626.434 458.926,614.574C501.648,601.506 557.929,579.756 592.751,565.601C598.572,563.235 606.931,564.447 614.716,570.839C623.551,578.095 632.972,592.303 632.972,592.303C635.083,595.537 635.641,599.545 634.492,603.232C633.343,606.919 630.607,609.901 627.032,611.362ZM622.134,599.381C622.134,599.381 605.748,574.291 597.625,577.593C562.521,591.862 505.78,613.778 462.712,626.952C424.052,638.777 387.834,640.206 339.219,656.632C318.337,663.688 285.874,680.997 270.527,683.097C241.044,687.131 231.341,659.198 228.908,641.283C225.988,619.776 239.362,577.269 249.906,554.514C258.522,535.923 287.48,490.913 279.297,489.908C272.591,489.084 252.507,516.505 240.513,534.583C231.064,548.825 187.115,632.234 211.035,677.113C216.991,688.288 223.436,713.028 266.231,713.068C284.616,713.085 321.059,691.334 349.662,682.197C371.2,675.318 430.018,669.089 468.853,657.285C514.265,643.483 622.134,599.381 622.134,599.381Z" style="fill:rgb(25,43,111);"/>
        </g>
        <g transform="matrix(4.291974,0,0,4.291974,-409.846281,-2422.708258)">
            <path d="M270.527,683.097C279.572,681.531 287.034,677.93 293.848,675.518C296.906,684.283 301.461,691.064 311.269,697.616C290.657,707.891 277.912,713.073 266.231,713.068C223.436,713.049 216.991,688.288 211.035,677.113C187.115,632.234 231.064,548.825 240.513,534.583C252.507,516.505 272.591,489.084 279.297,489.908C287.48,490.913 258.522,535.923 249.906,554.514C239.362,577.269 225.778,619.806 228.908,641.283C233.171,670.532 249.283,686.775 270.527,683.097Z" style="fill:rgb(95,204,240);"/>
        </g>
        <g transform="matrix(1.077778,0,0,1.077778,-250.817085,-1826.552123)">
            <path d="M1229,1305C1236.491,1305.364 1250.667,1257.667 1243,1217C1237.395,1187.271 1209.5,1139.167 1171,1133C1138.336,1127.768 1098.485,1154.43 1084,1181C1026.667,1286.167 1101.414,1362.946 1147,1386C1272.19,1449.312 1434.117,1428.339 1636,1464C1777.517,1488.998 1784.088,1622.167 1817,1669C1902.134,1790.146 2131.803,2211.874 2131.803,2211.874C2131.803,2211.874 2250.716,2125.024 2261.345,2113.068C2271.961,2101.127 2030.724,1698.845 1939,1573C1892.37,1509.024 1824.657,1328.961 1576,1338C1503.012,1340.653 1422.935,1352.163 1348,1352.069C1288.776,1351.994 1232.763,1344.672 1186,1320C1164.727,1308.777 1134.758,1282.99 1138,1241C1140.833,1204.31 1165.433,1189.323 1181.964,1194.968C1216.13,1206.634 1208.436,1304 1229,1305Z" style="fill:rgb(63,152,240);"/>
            <path d="M1289.197,1297.349C1308.181,1299.672 1327.922,1300.497 1348.065,1300.522C1422.365,1300.616 1501.758,1289.118 1574.128,1286.488C1850.425,1276.444 1928.842,1471.551 1980.656,1542.638C2064.76,1658.029 2271.977,2001.708 2304.749,2078.126C2312.059,2095.17 2313.356,2107.633 2313.212,2113.214C2313.035,2120.106 2311.652,2125.773 2309.983,2130.355L2299.869,2147.316C2288.526,2160.075 2162.205,2253.5 2162.205,2253.5C2150.209,2262.261 2135.016,2265.422 2120.521,2262.17C2106.026,2258.919 2093.639,2249.573 2086.534,2236.527C2086.534,2236.527 1859.164,1818.651 1774.826,1698.637C1760.249,1677.894 1749.389,1642.276 1732.716,1604.726C1715.969,1567.01 1689.989,1525.881 1627.034,1514.761C1506.997,1493.557 1401.202,1492.681 1308.985,1481.723C1240.547,1473.59 1178.979,1459.936 1123.737,1431.999C1062.418,1400.988 961.622,1297.789 1038.742,1156.327C1052.004,1132.001 1078.623,1106.98 1109.023,1093.096C1131.93,1082.634 1156.619,1078.493 1179.152,1082.102C1205.535,1086.328 1229.705,1100.84 1248.992,1121.443C1273.018,1147.107 1288.87,1182.075 1293.654,1207.45C1299.545,1238.696 1295.559,1272.791 1289.197,1297.349ZM1229,1305C1236.491,1305.364 1250.667,1257.667 1243,1217C1237.395,1187.271 1209.5,1139.167 1171,1133C1138.336,1127.768 1098.485,1154.43 1084,1181C1026.667,1286.167 1101.414,1362.946 1147,1386C1272.19,1449.312 1434.117,1428.339 1636,1464C1777.517,1488.998 1784.088,1622.167 1817,1669C1902.134,1790.146 2131.803,2211.874 2131.803,2211.874C2131.803,2211.874 2250.716,2125.024 2261.345,2113.068C2271.961,2101.127 2030.724,1698.845 1939,1573C1892.37,1509.024 1824.657,1328.961 1576,1338C1503.012,1340.653 1422.935,1352.163 1348,1352.069C1288.776,1351.994 1232.763,1344.672 1186,1320C1164.727,1308.777 1134.758,1282.99 1138,1241C1140.833,1204.31 1165.433,1189.323 1181.964,1194.968C1216.13,1206.634 1208.436,1304 1229,1305Z" style="fill:rgb(25,43,111);"/>
        </g>
        <g transform="matrix(1.077778,0,0,1.077778,-250.817085,-1826.552123)">
            <path d="M1229,1305C1236.491,1305.364 1250.667,1257.667 1243,1217C1237.395,1187.271 1209.5,1139.167 1171,1133C1138.336,1127.768 1098.485,1154.43 1084,1181C1026.667,1286.167 1101.414,1362.946 1147,1386C1272.19,1449.312 1461.503,1431.911 1662.457,1470.355C1670.442,1423.431 1674.867,1397.006 1703.279,1352.39C1668.648,1342.085 1636.847,1335.788 1576,1338C1503.012,1340.653 1422.935,1352.163 1348,1352.069C1288.776,1351.994 1232.763,1344.672 1186,1320C1164.727,1308.777 1134.758,1282.99 1138,1241C1140.833,1204.31 1165.433,1189.323 1181.964,1194.968C1216.13,1206.634 1208.436,1304 1229,1305Z" style="fill:rgb(95,204,240);"/>
        </g>
        <g transform="matrix(4.291974,0,0,4.291974,-345.17959,-2347.263785)">
            <path d="M391.687,709.607C389.274,709.728 389.445,710.049 386.951,709.844C333.277,705.43 341.64,780.71 400.498,776.992C462.678,773.063 471.763,708.257 474.193,631.521C475.825,579.986 547.242,554.345 555.153,559.794C564.602,566.302 570.591,581.136 573.144,581.07C586.835,580.713 502.777,598.775 502.762,622.5C502.648,808.668 399.667,812.017 363.749,786.597C308.791,747.704 343.515,674.836 391.687,709.607Z" style="fill:rgb(95,204,240);"/>
            <path d="M580.023,569.423C584.509,571.429 586.129,575.166 586.598,576.296L587.573,580.537L587.205,584.465L585.641,588.172C585.011,589.192 584.065,590.439 582.535,591.651C581.657,592.346 579.101,593.86 574.949,595.327C566.954,598.153 548.106,603.782 532.638,611.312C527.111,614.002 522.034,616.886 518.389,620.066C517.351,620.972 516.067,622.611 515.705,623.081C515.569,701.62 497.301,749.132 473.961,776.421C435.176,821.768 381.5,815.017 356.272,797.163C322.507,773.268 317.478,738.502 327.102,715.485C332.614,702.303 342.897,692.615 355.804,689.027C368.048,685.624 383.184,687.506 399.263,699.112C403.72,702.328 405.659,708.009 404.1,713.279C402.541,718.549 397.823,722.261 392.334,722.535C389.053,722.699 389.281,723.023 385.89,722.745C377.789,722.078 371.751,723.643 368.044,727.37C362.912,732.532 363.008,740.896 366.48,748.02C371.262,757.831 382.742,765.144 399.681,764.073C424.99,762.474 439.284,748.214 447.708,726.817C457.603,701.681 460.094,667.803 461.256,631.111C462.578,589.359 502.386,561.341 529.947,551.022C538.935,547.656 546.672,546.158 551.497,546.13C556.626,546.101 560.274,547.603 562.496,549.134C569.295,553.817 576.992,564.841 580.023,569.423ZM571.555,593.907C572.144,593.989 572.785,594.028 573.481,594.009C572.919,594.024 572.269,593.999 571.555,593.907ZM391.687,709.607C343.515,674.836 308.791,747.704 363.749,786.597C399.667,812.017 502.648,808.668 502.762,622.5C502.777,598.775 586.835,580.713 573.144,581.07C570.591,581.136 564.602,566.302 555.153,559.794C547.242,554.345 475.825,579.986 474.193,631.521C471.763,708.257 462.678,773.063 400.498,776.992C341.64,780.71 333.277,705.43 386.951,709.844C389.445,710.049 389.274,709.728 391.687,709.607Z" style="fill:rgb(25,43,111);"/>
        </g>
        <g transform="matrix(4.291974,0,0,4.291974,-345.17959,-2347.263785)">
            <path d="M482.684,738.214C473.734,733.039 467.038,730.828 460.168,730.153C463.045,723.708 466.511,709.698 468.13,700.829C471.913,680.102 473.404,656.441 474.193,631.521C475.825,579.986 547.242,554.345 555.153,559.794C564.602,566.302 570.591,581.136 573.144,581.07C586.835,580.713 502.777,598.775 502.762,622.5C502.731,673.951 495.32,711.929 482.684,738.214Z" style="fill:rgb(53,150,230);"/>
        </g>
        <g transform="matrix(4.291974,0,0,4.291974,-345.17959,-2347.263785)">
            <path d="M513.533,709.231C396.942,658.554 355.591,681.51 324.39,652.15C297.243,626.605 306.83,598.181 307.201,534.503C307.262,523.944 309.027,516.253 310.599,516.598C312.318,516.976 319.044,528.78 321.07,581.521C322.189,610.652 325.248,627.722 340.994,638.273C370.627,658.13 450.351,653.321 518.799,680.651C553.814,694.632 617.236,623.709 621.48,612.666C623.303,607.923 619.57,609.427 608.172,618.018C594.914,628.011 578.12,636.155 563.563,641.192C545.351,647.494 520.257,648.883 500.242,637.944C488.303,631.419 479.631,608.954 479.631,608.954C479.631,608.954 462.121,626.129 448.201,631.526C424.869,640.572 397.843,630.885 384.344,615.894C367.16,596.812 368.394,559.815 380.201,540.783C392.985,520.174 408.547,507.215 434.098,507.305C469.624,507.43 480.561,523.272 491.804,544.179C505.837,570.272 506.777,596.772 519.2,604.595C532.856,613.194 559.856,604.367 573.74,595.775C604.973,576.445 566.204,527.715 556.936,519.505C553.963,521.421 556.545,522.113 560.702,528.685C578.464,556.766 578.082,584.323 573.234,580.716C506.678,531.189 508.317,439.313 546.421,387.125C599.864,313.929 716.836,327.927 756.272,431.618C779.239,492.006 739.115,566.4 736.081,580.005C734.787,585.808 786.415,560.937 859.993,575.34C912.249,585.57 975.52,572.912 975.475,538.83C975.391,474.329 816.261,479.55 853.322,382.63C865.79,350.023 910.967,341.69 937.296,344.743C983.9,350.147 1013.79,378.618 1012.803,381.816C1011.366,386.474 890.49,327.853 879.229,399.501C867.497,474.15 1029.548,461.99 1009.479,551.594C999.581,595.786 917.8,621.004 853.837,611.169C831.661,608.848 823.842,604.243 780.659,618.628C775.854,614.438 752.211,602.562 752.211,602.562C752.211,602.562 769.553,618.43 779.139,626.933C782.599,630.002 802.438,650.164 811.516,667.84C832.754,709.188 822.445,737.8 787.729,751.308C750.703,765.714 694.406,734.081 669.06,724.755C690.001,727.197 691.976,718.961 708.965,712.827C734.684,721.765 769.594,736.308 780.215,712.827C787.779,696.102 765.628,658.205 733.172,651.096C730.964,647.946 730.067,645.714 726.956,634.894C724.521,626.427 716.482,613.374 713.25,612.295C712.38,612.004 710.682,613.358 711.306,614.948C754.619,725.393 624.852,746.334 581.151,712.017C594.303,706.383 609.715,696.38 621.219,687.185C632.342,709.276 696.052,677.5 666.035,637.947C662.015,632.651 668.408,634.459 668.352,627.94C668.316,623.717 660.603,632.523 660.152,633.156C641.806,658.888 619.094,674.121 597.542,688.024C561.964,710.975 540.02,720.744 513.533,709.231ZM432.986,538.645C419.576,537.962 401.293,562.451 404.375,582.28C406.199,594.014 414.097,602.787 424.293,603.962C438.891,605.643 448.447,599.728 454.643,581.57C459.305,567.906 453.787,539.706 432.986,538.645Z" style="fill:rgb(95,204,240);"/>
            <path d="M397.882,640.987C388.684,636.852 380.641,631.126 374.725,624.556C364.197,612.865 358.907,595.827 358.461,578.656C358.028,561.947 362.163,545.305 369.201,533.959C384.528,509.253 403.512,494.253 434.143,494.361C451.109,494.421 463.32,497.746 472.794,502.996C486.911,510.819 495.204,523.171 503.205,538.048C510.627,551.851 514.665,565.732 518.412,577.226C519.944,581.925 521.384,586.148 523.161,589.601C524.031,591.291 524.783,592.814 526.097,593.641C529.338,595.682 533.922,595.433 538.691,594.836C546.451,593.864 554.696,591.056 561.293,587.847C492.823,533.017 495.131,435.422 535.967,379.492C595.065,298.551 724.762,312.354 768.371,427.016C780.853,459.838 776.617,496.467 768.421,526.738C764.513,541.174 759.709,554.018 755.801,563.947C778.583,559.218 816.438,553.625 862.48,562.637C891.17,568.254 923.509,566.64 944.765,557.467C954.773,553.148 962.543,547.657 962.531,538.847C962.516,526.956 954.276,518.873 943.694,511.429C929.729,501.605 911.455,493.475 894.348,484.292C870.499,471.492 849.131,456.381 839.905,435.036C833.342,419.854 832.291,401.387 841.231,378.007C847.405,361.862 859.833,350.31 874.878,342.76C895.463,332.429 920.951,329.817 938.787,331.885C980.209,336.688 1009.594,358.23 1019.191,368.339C1023.036,372.389 1024.705,375.945 1025.226,377.776C1026.139,380.99 1025.789,383.633 1025.172,385.631L1022.314,390.633L1020.033,392.623C1019.165,393.221 1018.153,393.77 1016.961,394.199C1015.52,394.718 1013.137,395.303 1009.819,394.874C1007.406,394.562 1002.326,393.096 995.469,390.885C980.289,385.992 953.981,377.212 930.366,376.605C912.195,376.139 895.301,380.615 892.017,401.51C889.899,414.985 896.069,424.347 905.62,432.115C918.145,442.3 935.773,449.984 953.07,458.264C995.257,478.46 1033.696,502.694 1022.11,554.423C1017.409,575.415 999.812,593.514 974.612,606.073C940.72,622.964 893.074,630.225 852.18,624.01C834.22,622.1 826.384,618.597 797.246,627.002C805.444,635.978 816.658,649.519 823.03,661.926C835.592,686.384 838.031,707.207 832.989,723.781C827.666,741.278 814.1,754.937 792.422,763.371C775.284,770.04 754.575,768.721 734.02,763.402C706.907,756.387 680.065,742.597 664.59,736.903C664.276,736.787 663.97,736.661 663.67,736.524C658.873,737.679 653.99,738.546 649.079,739.128C620.136,742.559 590.674,735.954 573.157,722.197C571.833,721.158 570.747,719.889 569.933,718.475C547.408,728.623 528.988,730.063 508.373,721.102C439.989,691.379 398.07,687.617 368.899,683.124C345.953,679.591 329.914,675.122 315.519,661.577C299.24,646.258 293.689,630.198 292.55,608.299C291.59,589.854 294.07,566.592 294.257,534.428C294.314,524.573 295.862,516.691 297.292,513.191C298.742,509.639 300.782,507.573 302.289,506.427C305.952,503.641 309.759,503.161 313.377,503.955C315.25,504.367 319.89,505.565 323.525,512.247C326.436,517.601 332.235,534.954 334.005,581.024C334.419,591.794 335.063,600.786 336.686,608.316C338.524,616.846 341.605,623.101 348.199,627.52C358.782,634.611 376.578,637.702 397.882,640.987ZM439.097,647.195C466.484,651.605 495.934,657.584 523.599,668.63C527.99,670.383 533.072,669.5 538.449,667.721C545.914,665.25 553.713,660.757 561.328,655.404C540.895,660.883 515.066,660.797 494.034,649.302C487.567,645.767 481.532,639.045 476.948,631.931C476.442,631.145 475.953,630.358 475.481,629.574C468.7,634.906 460.321,640.71 452.88,643.595C448.371,645.343 443.749,646.522 439.097,647.195ZM513.533,709.231C540.02,720.744 561.964,710.975 597.542,688.024C619.094,674.121 641.806,658.888 660.152,633.156C660.603,632.523 668.316,623.717 668.352,627.94C668.408,634.459 662.015,632.651 666.035,637.947C696.052,677.5 632.342,709.276 621.219,687.185C609.715,696.38 594.303,706.383 581.151,712.017C624.852,746.334 754.619,725.393 711.306,614.948C710.682,613.358 712.38,612.004 713.25,612.295C716.482,613.374 724.521,626.427 726.956,634.894C730.067,645.714 730.964,647.946 733.172,651.096C765.628,658.205 787.779,696.102 780.215,712.827C769.594,736.308 734.684,721.765 708.965,712.827C691.976,718.961 690.001,727.197 669.06,724.755C694.406,734.081 750.703,765.714 787.729,751.308C822.445,737.8 832.754,709.188 811.516,667.84C802.438,650.164 782.599,630.002 779.139,626.933C769.553,618.43 752.211,602.562 752.211,602.562C752.211,602.562 775.854,614.438 780.659,618.628C823.842,604.243 831.661,608.848 853.837,611.169C917.8,621.004 999.581,595.786 1009.479,551.594C1029.548,461.99 867.497,474.15 879.229,399.501C890.49,327.853 1011.366,386.474 1012.803,381.816C1013.79,378.618 983.9,350.147 937.296,344.743C910.967,341.69 865.79,350.023 853.322,382.63C816.261,479.55 975.391,474.329 975.475,538.83C975.52,572.912 912.249,585.57 859.993,575.34C786.415,560.937 734.787,585.808 736.081,580.005C739.115,566.4 779.239,492.006 756.272,431.618C716.836,327.927 599.864,313.929 546.421,387.125C508.317,439.313 506.678,531.189 573.234,580.716C578.082,584.323 578.464,556.766 560.702,528.685C556.545,522.113 553.963,521.421 556.936,519.505C566.204,527.715 604.973,576.445 573.74,595.775C559.856,604.367 532.856,613.194 519.2,604.595C506.777,596.772 505.837,570.272 491.804,544.179C480.561,523.272 469.624,507.43 434.098,507.305C408.547,507.215 392.985,520.174 380.201,540.783C368.394,559.815 367.16,596.812 384.344,615.894C397.843,630.885 424.869,640.572 448.201,631.526C462.121,626.129 479.631,608.954 479.631,608.954C479.631,608.954 488.303,631.419 500.242,637.944C520.257,648.883 545.351,647.494 563.563,641.192C578.12,636.155 594.914,628.011 608.172,618.018C619.57,609.427 623.303,607.923 621.48,612.666C617.236,623.709 553.814,694.632 518.799,680.651C450.351,653.321 370.627,658.13 340.994,638.273C325.248,627.722 322.189,610.652 321.07,581.521C319.044,528.78 312.318,516.976 310.599,516.598C309.027,516.253 307.262,523.944 307.201,534.503C306.83,598.181 297.243,626.605 324.39,652.15C355.591,681.51 396.942,658.554 513.533,709.231ZM432.986,538.645C453.787,539.706 459.305,567.906 454.643,581.57C448.447,599.728 438.891,605.643 424.293,603.962C414.097,602.787 406.199,594.014 404.375,582.28C401.293,562.451 419.576,537.962 432.986,538.645ZM432.327,551.573C431.571,551.534 430.932,552.249 430.13,552.795C428.663,553.792 427.24,555.108 425.889,556.62C420.419,562.746 415.88,572.017 417.166,580.292C418.022,585.799 420.988,590.551 425.774,591.103C429.468,591.528 432.605,591.439 435.13,589.648C438.334,587.375 440.402,583.223 442.392,577.39C443.941,572.85 443.529,565.91 441.271,560.001C439.688,555.858 437.174,551.82 432.327,551.573ZM631.976,679.985C632.219,680.349 632.445,680.726 632.652,681.116C632.822,681.179 633.111,681.28 633.3,681.321C634.07,681.486 634.905,681.52 635.778,681.486C638.716,681.369 641.926,680.451 645.058,679.018C652.17,675.763 659.212,669.858 660.774,661.939C661.274,659.405 661.092,656.731 660.186,653.931C651.281,664.078 641.732,672.517 631.976,679.985ZM718.491,702.465C729.317,706.33 741.303,710.693 752.009,712.16C759.011,713.119 765.619,713.688 768.421,707.492C769.024,706.16 768.831,704.471 768.549,702.629C768.03,699.247 766.689,695.572 764.772,691.863C758.774,680.259 747.193,668.361 732.631,664.295C731.444,677.299 727.43,688.48 721.544,697.944C720.579,699.495 719.561,701.002 718.491,702.465Z" style="fill:rgb(25,43,111);"/>
        </g>
        <g transform="matrix(4.326848,0,0,4.326848,472.485175,-1569.584201)">
            <path d="M284.3,436.518C318.581,394.668 314.074,306.431 293.238,304.739C277.05,303.425 279.935,382.518 247.054,410.066" style="fill:rgb(95,204,240);stroke:rgb(25,43,111);stroke-width:12.84px;"/>
        </g>
        <g transform="matrix(4.326848,0,0,4.326848,472.485175,-1569.584201)">
            <path d="M330.053,258.099C329.499,282.86 333.19,304.509 363.472,335.585C360.524,337.485 363.085,338.171 367.208,344.69C384.827,372.545 384.448,399.88 379.64,396.302C313.62,347.174 326.739,267.77 330.053,258.099Z" style="fill:rgb(53,150,230);"/>
        </g>
        <g>
            <g transform="matrix(4.326848,0,0,4.326848,453.568502,-1664.167567)">
                <path d="M528.456,343.109C498.89,338.764 522.224,284.442 536.324,312.591C539.385,318.702 539.301,327.493 538.094,332.406C536.246,339.93 535.513,339.902 528.456,343.109Z" style="fill:rgb(25,43,111);"/>
            </g>
            <g transform="matrix(4.326848,0,0,4.326848,453.568502,-1664.167567)">
                <path d="M433.479,310.129C449.377,312.219 447.308,333.377 444.416,340.463C433.447,367.34 406.027,319.588 433.479,310.129Z" style="fill:rgb(26,44,112);"/>
            </g>
            <g transform="matrix(4.326848,0,0,4.326848,453.568502,-1626.334221)">
                <path d="M490.439,382.157C487.572,382.394 465.926,384.187 456.859,369.299C453.612,363.966 459.568,356.832 464.276,360.797C465.03,361.432 473.153,373.153 489.428,370.052C502.922,367.48 507.087,353.545 511.059,362.715C516.574,375.447 492.635,381.593 490.439,382.157Z" style="fill:rgb(25,42,110);"/>
            </g>
        </g>
        <g transform="matrix(4.291974,0,0,4.291974,-345.17959,-2347.263785)">
            <path d="M549.137,590.496C533.555,584.56 530.048,577.466 528.829,565.447C541.616,559.828 552.356,557.867 555.153,559.794C564.602,566.302 572.768,577.917 574.148,580.065C575.498,582.166 565.847,584.432 549.137,590.496Z" style="fill:rgb(53,150,230);"/>
        </g>
        <g transform="matrix(1.077778,0,0,1.077778,-249.817085,-1823.552123)">
            <path d="M1724.072,1750C1756.042,1682.318 1769.751,1614.036 1777.856,1567.144C1769.82,1561.951 1766.475,1560.08 1757,1556.144C1751.401,1590.969 1728.184,1680.47 1708.928,1709.072C1718.045,1724.355 1716.106,1726.899 1724.072,1750Z" style="fill:rgb(53,150,230);"/>
        </g>
        <g transform="matrix(1.077778,0,0,1.077778,-363.817085,-1856.552123)">
            <path d="M1372,2084.251C1462.029,2144.306 1642.701,2147.778 1793.514,2178.701C1690.027,2218.922 1392.538,2206.15 1372,2084.251Z" style="fill:rgb(63,152,241);"/>
        </g>
        <g transform="matrix(1.077778,0,0,1.077778,-250.817085,-1826.552123)">
            <path d="M2226,2352C2305.039,2318.073 2360.333,2273.167 2386,2254C2413.322,2294.235 2461.498,2281.193 2488,2274C2474.333,2294.833 2384.5,2390.167 2341,2403C2269.141,2383.787 2252.137,2371.844 2226,2352Z" style="fill:rgb(53,150,230);"/>
        </g>
        <g transform="matrix(1.077778,0,0,1.077778,191.464663,-1735.552123)">
            <path d="M2213.002,2337.839C2270.7,2308.551 2299.688,2290.248 2325.355,2271.081C2368.372,2286.634 2387.609,2292.238 2401.148,2296.448C2374.142,2320.649 2332.005,2353.227 2288.431,2370.016C2264.819,2359.153 2253.057,2354.899 2213.002,2337.839Z" style="fill:rgb(53,150,230);"/>
        </g>
        <g transform="matrix(1.077778,0,0,1.077778,-250.817085,-1826.552123)">
            <path d="M2569.569,2392.656C2569.144,2416.6 2574.637,2417.542 2555.062,2449.938C2631.05,2421.506 2668.022,2404.985 2735.719,2355.514C2600.182,2382.396 2649.533,2404.703 2569.569,2392.656Z" style="fill:rgb(25,43,111);"/>
        </g>
        <g transform="matrix(1,0,0,1,0,-1025)">
            <ellipse cx="3853.502" cy="1215.997" rx="28.502" ry="28.003" style="fill:rgb(25,43,111);"/>
            <g transform="matrix(0.830769,0,0,1.194444,633.6,-247.722222)">
                <ellipse cx="3776.5" cy="1256" rx="32.5" ry="18" style="fill:rgb(25,43,111);"/>
            </g>
            <ellipse cx="3948" cy="1145.5" rx="24" ry="36.5" style="fill:rgb(25,43,111);"/>
            <g transform="matrix(1,0,0,0.809524,0,223.809524)">
                <ellipse cx="3886.5" cy="1143.5" rx="23.5" ry="31.5" style="fill:rgb(25,43,111);"/>
            </g>
            <g transform="matrix(1,0,0,0.8,0,196.2)">
                <ellipse cx="3956" cy="1053.5" rx="21" ry="27.5" style="fill:rgb(25,43,111);"/>
            </g>
            <g transform="matrix(1,0,0,0.761194,0,240.955224)">
                <ellipse cx="3999" cy="975.5" rx="23" ry="33.5" style="fill:rgb(25,43,111);"/>
            </g>
            <g transform="matrix(1,0,0,0.815385,0,165.2)">
                <ellipse cx="3928" cy="916.5" rx="24" ry="32.5" style="fill:rgb(25,43,111);"/>
            </g>
            <g transform="matrix(1.5,0,0,0.918367,-1980,71.673469)">
                <ellipse cx="3974" cy="902.5" rx="14" ry="24.5" style="fill:rgb(25,43,111);"/>
            </g>
            <g transform="matrix(1,0,0,0.784314,4,194.431373)">
                <ellipse cx="3933" cy="996.5" rx="19" ry="25.5" style="fill:rgb(25,43,111);"/>
            </g>
            <ellipse cx="3934.5" cy="828" rx="24.5" ry="30" style="fill:rgb(25,43,111);"/>
            <ellipse cx="3883.5" cy="793" rx="20.5" ry="19" style="fill:rgb(25,43,111);"/>
            <g transform="matrix(0.948718,0,0,0.689655,194.205128,225.931034)">
                <ellipse cx="3767.5" cy="757" rx="19.5" ry="29" style="fill:rgb(25,43,111);"/>
            </g>
            <ellipse cx="3826.5" cy="750.5" rx="14.5" ry="24.5" style="fill:rgb(25,43,111);"/>
            <ellipse cx="3833.5" cy="806.5" rx="15.5" ry="17.5" style="fill:rgb(25,43,111);"/>
            <ellipse cx="3885.5" cy="852" rx="18.5" ry="20" style="fill:rgb(25,43,111);"/>
            <ellipse cx="3729.5" cy="710.5" rx="19.5" ry="17.5" style="fill:rgb(25,43,111);"/>
            <g transform="matrix(1,0,0,1,-8,8)">
                <ellipse cx="3646.5" cy="655.5" rx="23.5" ry="18.5" style="fill:rgb(25,43,111);"/>
            </g>
            <ellipse cx="2874.5" cy="1777.5" rx="31.5" ry="23.5" style="fill:rgb(25,43,111);"/>
            <ellipse cx="2783.5" cy="1774.5" rx="33.5" ry="25.5" style="fill:rgb(25,43,111);"/>
            <ellipse cx="2715" cy="1744.5" rx="28" ry="19.5" style="fill:rgb(25,43,111);"/>
            <ellipse cx="1157.5" cy="1697.5" rx="21.5" ry="24.5" style="fill:rgb(25,43,111);"/>
            <ellipse cx="1227" cy="1684" rx="20" ry="15" style="fill:rgb(25,43,111);"/>
            <g transform="matrix(1,0,0,0.705882,0,531.176471)">
                <ellipse cx="1104.5" cy="1780.5" rx="18.5" ry="25.5" style="fill:rgb(25,43,111);"/>
            </g>
            <g transform="matrix(1,0,0,1,-14,0)">
                <ellipse cx="1105.5" cy="1848.5" rx="19.5" ry="20.5" style="fill:rgb(25,43,111);"/>
            </g>
            <g transform="matrix(1.37037,0,0,1,-406.666667,0)">
                <ellipse cx="1111.5" cy="1927.5" rx="13.5" ry="22.5" style="fill:rgb(25,43,111);"/>
            </g>
            <g transform="matrix(1.310345,0,0,1,-359.241379,-1)">
                <ellipse cx="1149.5" cy="1979.5" rx="14.5" ry="19.5" style="fill:rgb(25,43,111);"/>
            </g>
            <ellipse cx="1138.5" cy="1750.5" rx="16.5" ry="18.5" style="fill:rgb(25,43,111);"/>
            <g transform="matrix(1.033332,0.33118,-0.247464,0.772124,297.64404,-181.147559)">
                <ellipse cx="1520.5" cy="1399.5" rx="23.5" ry="18.5" style="fill:rgb(25,43,111);"/>
            </g>
            <g transform="matrix(0.984692,0.174305,-0.09174,0.518259,150.498456,379.644978)">
                <ellipse cx="1630" cy="1368.5" rx="26" ry="28.5" style="fill:rgb(25,43,111);"/>
            </g>
            <g transform="matrix(0.794976,0.142758,-0.134887,0.751143,510.052743,120.382163)">
                <ellipse cx="1566" cy="1364" rx="26" ry="19" style="fill:rgb(25,43,111);"/>
            </g>
            <g transform="matrix(1.004629,0.200239,-0.146604,0.735532,185.452106,25.656983)">
                <ellipse cx="1628.5" cy="1313" rx="20.5" ry="18" style="fill:rgb(25,43,111);"/>
            </g>
            <g transform="matrix(1.010018,0.317759,-0.166016,0.527693,200.623955,92.891473)">
                <ellipse cx="1674" cy="1315.5" rx="17" ry="23.5" style="fill:rgb(25,43,111);"/>
            </g>
            <g transform="matrix(0.672133,0.165912,-0.190491,0.771709,775.282848,7.600633)">
                <ellipse cx="1659" cy="1256.5" rx="26" ry="19.5" style="fill:rgb(25,43,111);"/>
            </g>
            <g transform="matrix(0.971195,0.238286,-0.152748,0.622561,242.506923,70.968082)">
                <ellipse cx="1713.5" cy="1264.5" rx="15.5" ry="19.5" style="fill:rgb(25,43,111);"/>
            </g>
            <ellipse cx="145" cy="811.5" rx="10" ry="12.5" style="fill:rgb(25,43,111);"/>
            <ellipse cx="176.5" cy="876" rx="11.5" ry="18" style="fill:rgb(25,43,111);"/>
            <ellipse cx="161" cy="839.5" rx="7" ry="12.5" style="fill:rgb(25,43,111);"/>
            <ellipse cx="183.5" cy="925.5" rx="8.5" ry="13.5" style="fill:rgb(25,43,111);"/>
            <ellipse cx="203" cy="959" rx="11" ry="15" style="fill:rgb(25,43,111);"/>
            <ellipse cx="214.5" cy="1009.5" rx="9.5" ry="19.5" style="fill:rgb(25,43,111);"/>
            <ellipse cx="236" cy="1074" rx="13" ry="16" style="fill:rgb(25,43,111);"/>
            <ellipse cx="263.5" cy="1149.5" rx="10.5" ry="17.5" style="fill:rgb(25,43,111);"/>
            <ellipse cx="730.5" cy="767" rx="11.5" ry="13" style="fill:rgb(25,43,111);"/>
            <g transform="matrix(1.16,0,0,1.035714,-106.72,-28.25)">
                <ellipse cx="679.5" cy="805" rx="12.5" ry="14" style="fill:rgb(25,43,111);"/>
            </g>
            <g transform="matrix(1,0,0,1,-2,-8)">
                <ellipse cx="712.5" cy="804" rx="11.5" ry="10" style="fill:rgb(25,43,111);"/>
            </g>
            <g transform="matrix(0.814815,0,0,1,127.851852,-18)">
                <ellipse cx="671.5" cy="851.5" rx="13.5" ry="10.5" style="fill:rgb(25,43,111);"/>
            </g>
            <circle cx="654" cy="857" r="10" style="fill:rgb(25,43,111);"/>
            <ellipse cx="637.5" cy="887" rx="11.5" ry="11" style="fill:rgb(25,43,111);"/>
            <ellipse cx="604" cy="919" rx="11" ry="12" style="fill:rgb(25,43,111);"/>
            <g transform="matrix(1,0,0,1.466667,0,-431.2)">
                <ellipse cx="630" cy="916.5" rx="10" ry="7.5" style="fill:rgb(25,43,111);"/>
            </g>
            <ellipse cx="597" cy="952.5" rx="12" ry="11.5" style="fill:rgb(25,43,111);"/>
            <g transform="matrix(0.906178,0,0,0.782609,54.135011,211.521739)">
                <ellipse cx="586.5" cy="984.5" rx="9.5" ry="11.5" style="fill:rgb(25,43,111);"/>
            </g>
            <g transform="matrix(1.427046,0,0,1.301393,-233.16692,-305.338515)">
                <ellipse cx="556.5" cy="1023" rx="10.5" ry="10" style="fill:rgb(25,43,111);"/>
            </g>
            <g transform="matrix(1.170807,0,0,1.16,-91.040373,-167.84)">
                <ellipse cx="544.5" cy="1061.5" rx="11.5" ry="12.5" style="fill:rgb(25,43,111);"/>
            </g>
            <ellipse cx="564.5" cy="994.5" rx="8.5" ry="11.5" style="fill:rgb(25,43,111);"/>
            <g transform="matrix(0.88,0,0,0.88,62.4,133.32)">
                <ellipse cx="531.5" cy="1098.5" rx="11.5" ry="12.5" style="fill:rgb(25,43,111);"/>
            </g>
            <g transform="matrix(1.551282,0,0,1.269231,-281.705128,-310.153846)">
                <ellipse cx="520" cy="1139" rx="9" ry="13" style="fill:rgb(25,43,111);"/>
            </g>
            <g transform="matrix(1.460317,0,0,1.045455,-228.31746,-52.863636)">
                <ellipse cx="503" cy="1174" rx="7" ry="11" style="fill:rgb(25,43,111);"/>
            </g>
            <g transform="matrix(1.416667,0,0,1.230769,-465.833333,-163.076923)">
                <ellipse cx="1088" cy="574.5" rx="6" ry="6.5" style="fill:rgb(25,43,111);"/>
            </g>
            <g transform="matrix(1.3,0,0,1.4,-327.6,-221.2)">
                <circle cx="1087" cy="558" r="5" style="fill:rgb(25,43,111);"/>
            </g>
            <g transform="matrix(2.125,0,0,1.571429,-1207.125,-334.857143)">
                <ellipse cx="1077" cy="582.5" rx="4" ry="3.5" style="fill:rgb(25,43,111);"/>
            </g>
            <g transform="matrix(0.857143,0,0,0.636364,153.714286,186.181818)">
                <ellipse cx="1093.5" cy="534" rx="10.5" ry="11" style="fill:rgb(25,43,111);"/>
            </g>
            <g transform="matrix(1,0,0,1,-41,5)">
                <ellipse cx="2345" cy="1633.5" rx="38" ry="17.5" style="fill:rgb(25,43,111);"/>
            </g>
            <g transform="matrix(1,0,0,1,0,-9)">
                <ellipse cx="2384.5" cy="1659" rx="29.5" ry="14" style="fill:rgb(25,43,111);"/>
            </g>
            <circle cx="1761.5" cy="1092.5" r="9.5" style="fill:rgb(25,43,111);"/>
            <ellipse cx="1738.5" cy="1103" rx="9.5" ry="11" style="fill:rgb(25,43,111);"/>
            <ellipse cx="1772.5" cy="1062.5" rx="12.5" ry="11.5" style="fill:rgb(25,43,111);"/>
            <ellipse cx="1744.5" cy="1064.5" rx="10.5" ry="9.5" style="fill:rgb(25,43,111);"/>
            <g transform="matrix(1.4375,0,0,1.571429,-769.125,-594.285714)">
                <ellipse cx="1766" cy="1033" rx="8" ry="7" style="fill:rgb(25,43,111);"/>
            </g>
            <ellipse cx="1767" cy="996.5" rx="11" ry="8.5" style="fill:rgb(25,43,111);"/>
            <g transform="matrix(1,0,0,1,4,-10)">
                <ellipse cx="1785" cy="961" rx="10" ry="9" style="fill:rgb(25,43,111);"/>
            </g>
            <ellipse cx="1773.5" cy="970" rx="9.5" ry="8" style="fill:rgb(25,43,111);"/>
            <ellipse cx="1766.5" cy="939.5" rx="9.5" ry="8.5" style="fill:rgb(25,43,111);"/>
            <ellipse cx="1765" cy="849.5" rx="9" ry="9.5" style="fill:rgb(25,43,111);"/>
            <ellipse cx="1766.5" cy="884" rx="7.5" ry="8" style="fill:rgb(25,43,111);"/>
            <ellipse cx="1771" cy="914.5" rx="8" ry="7.5" style="fill:rgb(25,43,111);"/>
            <ellipse cx="1775.5" cy="868" rx="6.5" ry="8" style="fill:rgb(25,43,111);"/>
            <ellipse cx="1786.5" cy="1007.5" rx="8.5" ry="9.5" style="fill:rgb(25,43,111);"/>
            <ellipse cx="1781" cy="895.5" rx="7" ry="6.5" style="fill:rgb(25,43,111);"/>
            <g transform="matrix(1.127612,0.299337,-0.23888,0.899868,96.612317,-371.374869)">
                <ellipse cx="1667" cy="1284.5" rx="15" ry="14.5" style="fill:rgb(25,43,111);"/>
            </g>
            <g transform="matrix(1,0,0,0.90625,-0,114.5625)">
                <ellipse cx="1696.5" cy="1238" rx="15.5" ry="16" style="fill:rgb(25,43,111);"/>
            </g>
            <ellipse cx="1737" cy="1220.5" rx="14" ry="14.5" style="fill:rgb(25,43,111);"/>
            <ellipse cx="1694" cy="1203" rx="11" ry="10" style="fill:rgb(25,43,111);"/>
            <circle cx="1739.5" cy="1173.5" r="16.5" style="fill:rgb(25,43,111);"/>
            <ellipse cx="1708.5" cy="1159.5" rx="12.5" ry="13.5" style="fill:rgb(25,43,111);"/>
            <ellipse cx="1762" cy="1131" rx="13" ry="12" style="fill:rgb(25,43,111);"/>
            <circle cx="1731" cy="1134" r="10" style="fill:rgb(25,43,111);"/>
            <ellipse cx="3690.5" cy="679.5" rx="24.5" ry="19.5" style="fill:rgb(25,43,111);"/>
            <ellipse cx="3559.5" cy="620" rx="20.5" ry="21" style="fill:rgb(25,43,111);"/>
            <g transform="matrix(0.806452,0,0,1,685.741935,0)">
                <ellipse cx="3512" cy="588.5" rx="31" ry="17.5" style="fill:rgb(25,43,111);"/>
            </g>
            <g transform="matrix(1.375,0,0,0.921569,-1463.25,86.980392)">
                <ellipse cx="3918" cy="1083.5" rx="16" ry="25.5" style="fill:rgb(25,43,111);"/>
            </g>
            <g transform="matrix(0.996573,-0.08272,0.08272,0.996573,-32.308539,87.183505)">
                <ellipse cx="1036" cy="433.5" rx="11" ry="4.5" style="fill:rgb(25,43,111);"/>
            </g>
            <g transform="matrix(1.355968,-0.259833,0.153992,0.803625,-421.677046,343.064216)">
                <ellipse cx="989.5" cy="425" rx="8.5" ry="5" style="fill:rgb(25,43,111);"/>
            </g>
            <g transform="matrix(1.272341,-0.113016,0.126418,1.423224,-312.790474,-69.434076)">
                <ellipse cx="992.5" cy="435" rx="8.5" ry="4" style="fill:rgb(25,43,111);"/>
            </g>
            <g transform="matrix(1,0,0,1,15,-12)">
                <ellipse cx="1058.5" cy="510" rx="7.5" ry="8" style="fill:rgb(25,43,111);"/>
            </g>
            <g transform="matrix(1.25,0,0,1.272727,-266.5,-146.727273)">
                <ellipse cx="1072" cy="521.5" rx="6" ry="5.5" style="fill:rgb(25,43,111);"/>
            </g>
            <g transform="matrix(0.772727,0,0,0.714286,247.045455,135.142857)">
                <ellipse cx="1076" cy="483.5" rx="11" ry="10.5" style="fill:rgb(25,43,111);"/>
            </g>
            <g transform="matrix(1.110246,-0.128412,0.082895,0.716704,-159.2964,257.32431)">
                <ellipse cx="1058.5" cy="455" rx="8.5" ry="9" style="fill:rgb(25,43,111);"/>
            </g>
            <g transform="matrix(1.307692,0,0,1.416667,-323.384615,-204.666667)">
                <ellipse cx="1057.5" cy="478" rx="6.5" ry="6" style="fill:rgb(25,43,111);"/>
            </g>
            <g transform="matrix(1.363636,0,0,1.555556,-373.272727,-276.222222)">
                <ellipse cx="1037.5" cy="476.5" rx="5.5" ry="4.5" style="fill:rgb(25,43,111);"/>
            </g>
            <g transform="matrix(1.153381,-0.28261,0.280618,1.14525,-286.33957,221.362773)">
                <ellipse cx="1030" cy="452.5" rx="8" ry="5.5" style="fill:rgb(25,43,111);"/>
            </g>
            <g transform="matrix(1.213571,-0.16354,0.161958,1.201834,-282.157152,75.055186)">
                <ellipse cx="1011" cy="427.5" rx="9" ry="4.5" style="fill:rgb(25,43,111);"/>
            </g>
            <ellipse cx="978.5" cy="951" rx="7.5" ry="12" style="fill:rgb(25,43,111);"/>
            <g transform="matrix(0.818182,0,0,1,175,-1)">
                <ellipse cx="990" cy="988" rx="11" ry="12" style="fill:rgb(25,43,111);"/>
            </g>
            <ellipse cx="970.5" cy="1014" rx="10.5" ry="12" style="fill:rgb(25,43,111);"/>
            <ellipse cx="986.5" cy="1032.5" rx="8.5" ry="14.5" style="fill:rgb(25,43,111);"/>
            <ellipse cx="972.5" cy="1066.5" rx="6.5" ry="10.5" style="fill:rgb(25,43,111);"/>
            <g transform="matrix(1,0,0,1,2,-3)">
                <ellipse cx="978" cy="1270" rx="7" ry="13" style="fill:rgb(25,43,111);"/>
            </g>
            <g transform="matrix(0.999737,0.022946,-0.022946,0.999737,25.395181,-22.209839)">
                <ellipse cx="980.5" cy="1095.5" rx="7.5" ry="12.5" style="fill:rgb(25,43,111);"/>
            </g>
            <ellipse cx="971" cy="1142.5" rx="8" ry="14.5" style="fill:rgb(25,43,111);"/>
            <g transform="matrix(1.363636,0,0,1,-352.363636,0)">
                <ellipse cx="974.5" cy="1190" rx="5.5" ry="13" style="fill:rgb(25,43,111);"/>
            </g>
            <ellipse cx="964" cy="1242" rx="7" ry="17" style="fill:rgb(25,43,111);"/>
            <ellipse cx="969" cy="1296.5" rx="8" ry="14.5" style="fill:rgb(25,43,111);"/>
        </g>
    </g>
</svg>

